<svg width="675" height="106" viewBox="0 0 675 106" fill="none" xmlns="http://www.w3.org/2000/svg">
<path fill-rule="evenodd" clip-rule="evenodd" d="M314.107 12.344C312.127 12.344 310.499 11.772 309.223 10.628C307.991 9.43997 307.375 7.98797 307.375 6.27197C307.375 4.51197 307.991 3.05997 309.223 1.91597C310.499 0.727971 312.127 0.133972 314.107 0.133972C316.043 0.133972 317.627 0.727971 318.859 1.91597C320.135 3.05997 320.773 4.51197 320.773 6.27197C320.773 7.98797 320.135 9.43997 318.859 10.628C317.627 11.772 316.043 12.344 314.107 12.344ZM319.717 16.172V53H308.431V16.172H319.717ZM532.653 34.52C532.653 30.736 533.357 27.414 534.765 24.554C536.217 21.694 538.175 19.494 540.639 17.954C543.103 16.414 545.853 15.644 548.889 15.644C551.309 15.644 553.509 16.15 555.489 17.162C557.513 18.174 559.097 19.538 560.241 21.254V4.15997H571.527V53H560.241V47.72C559.185 49.48 557.667 50.888 555.687 51.944C553.75 53 551.485 53.528 548.889 53.528C545.853 53.528 543.103 52.758 540.639 51.218C538.175 49.634 536.217 47.412 534.765 44.552C533.357 41.648 532.653 38.304 532.653 34.52ZM560.241 34.586C560.241 31.77 559.448 29.548 557.865 27.92C556.325 26.292 554.432 25.478 552.189 25.478C549.945 25.478 548.031 26.292 546.447 27.92C544.906 29.504 544.137 31.704 544.137 34.52C544.137 37.336 544.906 39.58 546.447 41.252C548.031 42.88 549.945 43.694 552.189 43.694C554.432 43.694 556.325 42.88 557.865 41.252C559.448 39.624 560.241 37.402 560.241 34.586ZM612.889 37.292C613.021 36.148 613.087 35.048 613.087 33.992C613.087 30.296 612.295 27.062 610.711 24.29C609.171 21.518 607.015 19.384 604.243 17.888C601.471 16.392 598.303 15.644 594.739 15.644C591.087 15.644 587.853 16.414 585.037 17.954C582.221 19.494 580.021 21.694 578.437 24.554C576.897 27.414 576.127 30.758 576.127 34.586C576.127 38.414 576.919 41.758 578.503 44.618C580.087 47.478 582.287 49.678 585.103 51.218C587.919 52.758 591.131 53.528 594.739 53.528C597.731 53.528 600.437 52.978 602.857 51.878C605.277 50.778 607.279 49.26 608.863 47.324C610.491 45.388 611.613 43.21 612.229 40.79H600.217C599.117 43.166 597.159 44.354 594.343 44.354C592.451 44.354 590.845 43.76 589.525 42.572C588.249 41.34 587.523 39.58 587.347 37.292H612.889ZM599.557 26.402C600.877 27.546 601.537 29.086 601.537 31.022H587.413C587.721 28.998 588.513 27.436 589.789 26.336C591.109 25.236 592.715 24.686 594.607 24.686C596.587 24.686 598.237 25.258 599.557 26.402ZM659.614 53.528C656.402 53.528 653.542 52.978 651.034 51.878C648.526 50.778 646.546 49.282 645.094 47.39C643.642 45.454 642.828 43.298 642.652 40.922H653.806C653.938 42.198 654.532 43.232 655.588 44.024C656.644 44.816 657.942 45.212 659.482 45.212C660.89 45.212 661.968 44.948 662.716 44.42C663.508 43.848 663.904 43.122 663.904 42.242C663.904 41.186 663.354 40.416 662.254 39.932C661.154 39.404 659.372 38.832 656.908 38.216C654.268 37.6 652.068 36.962 650.308 36.302C648.548 35.598 647.03 34.52 645.754 33.068C644.478 31.572 643.84 29.57 643.84 27.062C643.84 24.95 644.412 23.036 645.556 21.32C646.744 19.56 648.46 18.174 650.704 17.162C652.992 16.15 655.698 15.644 658.822 15.644C663.442 15.644 667.072 16.788 669.712 19.076C672.396 21.364 673.936 24.4 674.332 28.184H663.904C663.728 26.908 663.156 25.896 662.188 25.148C661.264 24.4 660.032 24.026 658.492 24.026C657.172 24.026 656.16 24.29 655.456 24.818C654.752 25.302 654.4 25.984 654.4 26.864C654.4 27.92 654.95 28.712 656.05 29.24C657.194 29.768 658.954 30.296 661.33 30.824C664.058 31.528 666.28 32.232 667.996 32.936C669.712 33.596 671.208 34.696 672.484 36.236C673.804 37.732 674.486 39.756 674.53 42.308C674.53 44.464 673.914 46.4 672.682 48.116C671.494 49.788 669.756 51.108 667.468 52.076C665.224 53.044 662.606 53.528 659.614 53.528ZM629.007 22.31C630.327 20.286 631.977 18.702 633.957 17.558C635.937 16.37 638.137 15.776 640.557 15.776V27.722H637.455C634.639 27.722 632.527 28.338 631.119 29.57C629.711 30.758 629.007 32.87 629.007 35.906V53H617.721V16.172H629.007V22.31ZM491.29 24.554C489.882 27.414 489.178 30.736 489.178 34.52C489.178 38.304 489.882 41.648 491.29 44.552C492.742 47.412 494.7 49.634 497.164 51.218C499.628 52.758 502.356 53.528 505.348 53.528C507.944 53.528 510.21 53 512.146 51.944C514.126 50.888 515.666 49.502 516.766 47.786V53H528.052V16.172H516.766V21.386C515.71 19.67 514.192 18.284 512.212 17.228C510.276 16.172 508.01 15.644 505.414 15.644C502.378 15.644 499.628 16.414 497.164 17.954C494.7 19.494 492.742 21.694 491.29 24.554ZM514.39 27.92C515.974 29.548 516.766 31.77 516.766 34.586C516.766 37.402 515.974 39.624 514.39 41.252C512.85 42.88 510.958 43.694 508.714 43.694C506.47 43.694 504.556 42.88 502.972 41.252C501.432 39.58 500.662 37.336 500.662 34.52C500.662 31.704 501.432 29.504 502.972 27.92C504.556 26.292 506.47 25.478 508.714 25.478C510.958 25.478 512.85 26.292 514.39 27.92ZM486.788 33.992C486.788 35.048 486.722 36.148 486.59 37.292H461.048C461.224 39.58 461.95 41.34 463.226 42.572C464.546 43.76 466.152 44.354 468.044 44.354C470.86 44.354 472.818 43.166 473.918 40.79H485.93C485.314 43.21 484.192 45.388 482.564 47.324C480.98 49.26 478.978 50.778 476.558 51.878C474.138 52.978 471.432 53.528 468.44 53.528C464.832 53.528 461.62 52.758 458.804 51.218C455.988 49.678 453.788 47.478 452.204 44.618C450.62 41.758 449.828 38.414 449.828 34.586C449.828 30.758 450.598 27.414 452.138 24.554C453.722 21.694 455.922 19.494 458.738 17.954C461.554 16.414 464.788 15.644 468.44 15.644C472.004 15.644 475.172 16.392 477.944 17.888C480.716 19.384 482.872 21.518 484.412 24.29C485.996 27.062 486.788 30.296 486.788 33.992ZM475.238 31.022C475.238 29.086 474.578 27.546 473.258 26.402C471.938 25.258 470.288 24.686 468.308 24.686C466.416 24.686 464.81 25.236 463.49 26.336C462.214 27.436 461.422 28.998 461.114 31.022H475.238ZM445.244 53V6.66797H433.958V24.818H416.402V6.66797H405.116V53H416.402V33.926H433.958V53H445.244ZM389.689 16.172L366.589 70.49H354.445L362.893 51.746L347.911 16.172H360.517L369.031 39.206L377.479 16.172H389.689ZM347.102 53V43.43H343.076C341.844 43.43 340.964 43.188 340.436 42.704C339.908 42.22 339.644 41.428 339.644 40.328V25.544H347.036V16.172H339.644V7.19598H328.358V16.172H323.87V25.544H328.358V40.196C328.358 44.728 329.502 48.006 331.79 50.03C334.078 52.01 337.268 53 341.36 53H347.102ZM297.757 17.558C295.777 18.702 294.127 20.286 292.807 22.31V16.172H281.521V53H292.807V35.906C292.807 32.87 293.511 30.758 294.919 29.57C296.327 28.338 298.439 27.722 301.255 27.722H304.357V15.776C301.937 15.776 299.737 16.37 297.757 17.558ZM274.734 16.172V53H263.448V47.984C262.304 49.612 260.742 50.932 258.762 51.944C256.826 52.912 254.67 53.396 252.294 53.396C249.478 53.396 246.992 52.78 244.836 51.548C242.68 50.272 241.008 48.446 239.82 46.07C238.632 43.694 238.038 40.9 238.038 37.688V16.172H249.258V36.17C249.258 38.634 249.896 40.548 251.172 41.912C252.448 43.276 254.164 43.958 256.32 43.958C258.52 43.958 260.258 43.276 261.534 41.912C262.81 40.548 263.448 38.634 263.448 36.17V16.172H274.734ZM199.793 24.554C198.253 27.414 197.483 30.758 197.483 34.586C197.483 38.414 198.253 41.758 199.793 44.618C201.377 47.478 203.555 49.678 206.327 51.218C209.143 52.758 212.355 53.528 215.963 53.528C220.539 53.528 224.389 52.296 227.513 49.832C230.637 47.368 232.683 43.98 233.651 39.668H221.639C220.627 42.484 218.669 43.892 215.765 43.892C213.697 43.892 212.047 43.1 210.815 41.516C209.583 39.888 208.967 37.578 208.967 34.586C208.967 31.594 209.583 29.306 210.815 27.722C212.047 26.094 213.697 25.28 215.765 25.28C218.669 25.28 220.627 26.688 221.639 29.504H233.651C232.683 25.104 230.637 21.694 227.513 19.274C224.433 16.854 220.583 15.644 215.963 15.644C212.355 15.644 209.143 16.414 206.327 17.954C203.555 19.494 201.377 21.694 199.793 24.554ZM195.093 33.992C195.093 35.048 195.027 36.148 194.895 37.292H169.353C169.529 39.58 170.255 41.34 171.531 42.572C172.851 43.76 174.457 44.354 176.349 44.354C179.165 44.354 181.123 43.166 182.223 40.79H194.235C193.619 43.21 192.497 45.388 190.869 47.324C189.285 49.26 187.283 50.778 184.863 51.878C182.443 52.978 179.737 53.528 176.745 53.528C173.137 53.528 169.925 52.758 167.109 51.218C164.293 49.678 162.093 47.478 160.509 44.618C158.925 41.758 158.133 38.414 158.133 34.586C158.133 30.758 158.903 27.414 160.443 24.554C162.027 21.694 164.227 19.494 167.043 17.954C169.859 16.414 173.093 15.644 176.745 15.644C180.309 15.644 183.477 16.392 186.249 17.888C189.021 19.384 191.177 21.518 192.717 24.29C194.301 27.062 195.093 30.296 195.093 33.992ZM183.543 31.022C183.543 29.086 182.883 27.546 181.563 26.402C180.243 25.258 178.593 24.686 176.613 24.686C174.721 24.686 173.115 25.236 171.795 26.336C170.519 27.436 169.727 28.998 169.419 31.022H183.543ZM128.748 51.812C131.432 52.912 134.468 53.462 137.856 53.462C141.332 53.462 144.346 52.824 146.898 51.548C149.45 50.272 151.386 48.556 152.706 46.4C154.07 44.244 154.752 41.846 154.752 39.206C154.752 36.434 154.07 34.168 152.706 32.408C151.342 30.648 149.714 29.306 147.822 28.382C145.974 27.458 143.554 26.49 140.562 25.478C137.57 24.51 135.37 23.608 133.962 22.772C132.554 21.936 131.85 20.77 131.85 19.274C131.85 17.91 132.268 16.876 133.104 16.172C133.94 15.424 135.04 15.05 136.404 15.05C137.988 15.05 139.286 15.49 140.298 16.37C141.31 17.206 141.86 18.372 141.948 19.868H154.158C153.938 15.512 152.266 12.124 149.142 9.70399C146.018 7.23999 141.904 6.008 136.8 6.008C131.784 6.008 127.714 7.23999 124.59 9.70399C121.466 12.124 119.904 15.49 119.904 19.802C119.904 22.706 120.586 25.06 121.95 26.864C123.314 28.668 124.942 30.032 126.834 30.956C128.726 31.88 131.168 32.804 134.16 33.728C136.228 34.344 137.812 34.894 138.912 35.378C140.056 35.862 141.002 36.478 141.75 37.226C142.542 37.974 142.938 38.92 142.938 40.064C142.938 41.428 142.454 42.506 141.486 43.298C140.518 44.046 139.198 44.42 137.526 44.42C135.898 44.42 134.578 43.98 133.566 43.1C132.554 42.176 131.96 40.856 131.784 39.14H119.772C119.86 42.176 120.696 44.772 122.28 46.928C123.908 49.084 126.064 50.712 128.748 51.812ZM50.4421 4C22.5841 4 0 26.7511 0 54.8151C0 82.879 22.5841 105.63 50.4421 105.63C78.3 105.63 100.884 82.879 100.884 54.8151C100.884 26.7511 78.3 4 50.4421 4ZM88.9946 44.3037L72.1917 60.8004C71.6643 61.3183 71.4173 62.0715 71.5441 62.8045L75.5095 86.1004C75.8233 87.9498 73.894 89.362 72.2451 88.4878L51.4835 77.4922C50.8293 77.1425 50.0482 77.1425 49.3873 77.4922L28.6257 88.4878C26.9768 89.362 25.0541 87.9498 25.3679 86.1004L29.3333 62.8045C29.4601 62.0715 29.2131 61.3183 28.6857 60.8004L11.8829 44.3037C10.5544 42.9923 11.2887 40.7125 13.1312 40.4435L36.3495 37.0473C37.0772 36.9397 37.7114 36.4756 38.0385 35.8099L48.426 14.619C49.2471 12.931 51.6303 12.931 52.4581 14.619L62.8389 35.8099C63.1661 36.4756 63.8003 36.9397 64.5279 37.0473L87.7462 40.4435C89.5954 40.7125 90.3231 42.9923 88.9946 44.3037ZM267 93.9922L267.001 93.9849C268.637 94.7716 270.554 95.1766 272.914 95.1766C277.192 95.1766 280.309 93.1585 280.309 89.6442C280.309 86.3863 277.411 85.2915 275.189 84.4521C273.808 83.9304 272.688 83.5073 272.688 82.7247C272.688 82.1013 273.468 81.7584 274.442 81.7584C276.016 81.7584 277.909 82.2572 279.296 82.7948L279.834 79.0857C278.517 78.6182 276.468 78.0805 274.488 78.0805C270.514 78.0805 267.343 79.9039 267.343 83.3636C267.343 86.7036 270.188 87.7905 272.363 88.6217C273.71 89.1363 274.8 89.5529 274.8 90.3455C274.8 91.0701 274.013 91.4753 272.821 91.4753C271.184 91.4753 269.229 91.0701 267.499 90.2208L267.001 93.9849L267 93.9844V93.9922ZM293.54 85.4909C293.54 83.3559 292.597 82.3429 290.797 82.3429C289.917 82.3429 288.997 82.5922 288.374 82.974V94.8338H282.842V78.6338L288.257 78.1896L288.125 80.839H288.312C289.481 79.2649 291.46 78.0727 293.821 78.0727C296.649 78.0727 299.104 79.826 299.104 83.9792V94.826H293.548V85.4831L293.54 85.4909ZM310.255 85.8727L312.522 78.4857H318L311.579 94.787C309.662 99.6883 306.927 103 302.836 103C301.262 103 299.938 102.595 299.244 102.197L301.449 98.7922C301.777 98.8312 302.119 98.8468 302.462 98.8468C304.348 98.8468 305.766 97.0156 306.686 94.8338L299.945 78.4779H306.148L308.571 85.7792C309.047 87.1662 309.382 89.8156 309.382 89.8156C309.382 89.8156 309.818 87.2597 310.262 85.8727H310.255ZM325.675 87.1273H325.231V94.8338H319.699V75.6494L325.231 67V84.8987C326.33 83.5507 330.039 78.4234 330.039 78.4234H336.873L330.397 85.2805L337.099 94.8494H330.109L325.675 87.1273ZM384.682 80.211C385.066 80.5637 385.541 80.74 386.108 80.74C386.676 80.74 387.143 80.5637 387.511 80.211C387.895 79.843 388.086 79.3907 388.086 78.854C388.086 78.3174 387.895 77.8727 387.511 77.52C387.143 77.152 386.676 76.968 386.108 76.968C385.541 76.968 385.066 77.152 384.682 77.52C384.314 77.8727 384.13 78.3174 384.13 78.854C384.13 79.3907 384.314 79.843 384.682 80.211ZM387.695 95V82.258H384.475V95H387.695ZM416.456 89.595C416.517 89.227 416.548 88.813 416.548 88.353C416.548 87.111 416.279 86.0147 415.743 85.064C415.221 84.098 414.478 83.3544 413.512 82.833C412.561 82.3117 411.48 82.051 410.269 82.051C409.011 82.051 407.9 82.3194 406.934 82.856C405.968 83.3927 405.216 84.1594 404.68 85.156C404.143 86.1527 403.875 87.3104 403.875 88.629C403.875 89.9324 404.143 91.0824 404.68 92.079C405.232 93.0757 405.991 93.85 406.957 94.402C407.938 94.9387 409.042 95.207 410.269 95.207C411.787 95.207 413.067 94.816 414.11 94.034C415.152 93.2367 415.858 92.2247 416.226 90.998H412.753C412.247 92.0254 411.396 92.539 410.2 92.539C409.372 92.539 408.674 92.2784 408.107 91.757C407.539 91.2357 407.217 90.515 407.141 89.595H416.456ZM412.316 85.455C412.898 85.9457 413.197 86.605 413.213 87.433H407.164C407.286 86.5744 407.616 85.9074 408.153 85.432C408.705 84.9414 409.379 84.696 410.177 84.696C411.02 84.696 411.733 84.949 412.316 85.455ZM423.084 95.207C422.041 95.207 421.106 95.023 420.278 94.655C419.45 94.2717 418.791 93.758 418.3 93.114C417.825 92.47 417.564 91.757 417.518 90.975H420.761C420.822 91.4657 421.06 91.872 421.474 92.194C421.903 92.516 422.432 92.677 423.061 92.677C423.674 92.677 424.15 92.5544 424.487 92.309C424.84 92.0637 425.016 91.7494 425.016 91.366C425.016 90.952 424.801 90.6454 424.372 90.446C423.958 90.2314 423.291 90.0014 422.371 89.756C421.42 89.526 420.638 89.2884 420.025 89.043C419.427 88.7977 418.906 88.422 418.461 87.916C418.032 87.41 417.817 86.7277 417.817 85.869C417.817 85.1637 418.016 84.5197 418.415 83.937C418.829 83.3544 419.412 82.8944 420.163 82.557C420.93 82.2197 421.827 82.051 422.854 82.051C424.372 82.051 425.583 82.4344 426.488 83.201C427.393 83.9524 427.891 84.972 427.983 86.26H424.901C424.855 85.754 424.64 85.3554 424.257 85.064C423.889 84.7574 423.391 84.604 422.762 84.604C422.179 84.604 421.727 84.7114 421.405 84.926C421.098 85.1407 420.945 85.4397 420.945 85.823C420.945 86.2524 421.16 86.582 421.589 86.812C422.018 87.0267 422.685 87.249 423.59 87.479C424.51 87.709 425.269 87.9467 425.867 88.192C426.465 88.4374 426.979 88.8207 427.408 89.342C427.853 89.848 428.083 90.5227 428.098 91.366C428.098 92.102 427.891 92.7614 427.477 93.344C427.078 93.9267 426.496 94.3867 425.729 94.724C424.978 95.046 424.096 95.207 423.084 95.207ZM434.927 95.207C433.884 95.207 432.949 95.023 432.121 94.655C431.293 94.2717 430.634 93.758 430.143 93.114C429.668 92.47 429.407 91.757 429.361 90.975H432.604C432.665 91.4657 432.903 91.872 433.317 92.194C433.746 92.516 434.275 92.677 434.904 92.677C435.517 92.677 435.993 92.5544 436.33 92.309C436.683 92.0637 436.859 91.7494 436.859 91.366C436.859 90.952 436.644 90.6454 436.215 90.446C435.801 90.2314 435.134 90.0014 434.214 89.756C433.263 89.526 432.481 89.2884 431.868 89.043C431.27 88.7977 430.749 88.422 430.304 87.916C429.875 87.41 429.66 86.7277 429.66 85.869C429.66 85.1637 429.859 84.5197 430.258 83.937C430.672 83.3544 431.255 82.8944 432.006 82.557C432.773 82.2197 433.67 82.051 434.697 82.051C436.215 82.051 437.426 82.4344 438.331 83.201C439.236 83.9524 439.734 84.972 439.826 86.26H436.744C436.698 85.754 436.483 85.3554 436.1 85.064C435.732 84.7574 435.234 84.604 434.605 84.604C434.022 84.604 433.57 84.7114 433.248 84.926C432.941 85.1407 432.788 85.4397 432.788 85.823C432.788 86.2524 433.003 86.582 433.432 86.812C433.861 87.0267 434.528 87.249 435.433 87.479C436.353 87.709 437.112 87.9467 437.71 88.192C438.308 88.4374 438.822 88.8207 439.251 89.342C439.696 89.848 439.926 90.5227 439.941 91.366C439.941 92.102 439.734 92.7614 439.32 93.344C438.921 93.9267 438.339 94.3867 437.572 94.724C436.821 95.046 435.939 95.207 434.927 95.207ZM397.248 82.074C398.766 82.074 399.992 82.557 400.928 83.523C401.863 84.4737 402.331 85.8077 402.331 87.525V95H399.111V87.962C399.111 86.95 398.858 86.1757 398.352 85.639C397.846 85.087 397.156 84.811 396.282 84.811C395.392 84.811 394.687 85.087 394.166 85.639C393.66 86.1757 393.407 86.95 393.407 87.962V95H390.187V82.258H393.407V83.845C393.836 83.293 394.38 82.8636 395.04 82.557C395.714 82.235 396.45 82.074 397.248 82.074ZM377.508 95.207C376.465 95.207 375.53 95.023 374.702 94.655C373.874 94.2717 373.215 93.758 372.724 93.114C372.249 92.47 371.988 91.757 371.942 90.975H375.185C375.246 91.4657 375.484 91.872 375.898 92.194C376.327 92.516 376.856 92.677 377.485 92.677C378.098 92.677 378.574 92.5544 378.911 92.309C379.264 92.0637 379.44 91.7494 379.44 91.366C379.44 90.952 379.225 90.6454 378.796 90.446C378.382 90.2314 377.715 90.0014 376.795 89.756C375.844 89.526 375.062 89.2884 374.449 89.043C373.851 88.7977 373.33 88.422 372.885 87.916C372.456 87.41 372.241 86.7277 372.241 85.869C372.241 85.1637 372.44 84.5197 372.839 83.937C373.253 83.3544 373.836 82.8944 374.587 82.557C375.354 82.2197 376.251 82.051 377.278 82.051C378.796 82.051 380.007 82.4344 380.912 83.201C381.817 83.9524 382.315 84.972 382.407 86.26H379.325C379.279 85.754 379.064 85.3554 378.681 85.064C378.313 84.7574 377.815 84.604 377.186 84.604C376.603 84.604 376.151 84.7114 375.829 84.926C375.522 85.1407 375.369 85.4397 375.369 85.823C375.369 86.2524 375.584 86.582 376.013 86.812C376.442 87.0267 377.109 87.249 378.014 87.479C378.934 87.709 379.693 87.9467 380.291 88.192C380.889 88.4374 381.403 88.8207 381.832 89.342C382.277 89.848 382.507 90.5227 382.522 91.366C382.522 92.102 382.315 92.7614 381.901 93.344C381.502 93.9267 380.92 94.3867 380.153 94.724C379.402 95.046 378.52 95.207 377.508 95.207ZM370.145 95V82.258H366.902V89.273C366.902 90.285 366.649 91.067 366.143 91.619C365.637 92.1557 364.939 92.424 364.05 92.424C363.176 92.424 362.486 92.1557 361.98 91.619C361.474 91.067 361.221 90.285 361.221 89.273V82.258H358.001V89.733C358.001 90.8677 358.216 91.849 358.645 92.677C359.09 93.4897 359.695 94.1107 360.462 94.54C361.229 94.954 362.11 95.161 363.107 95.161C363.889 95.161 364.61 95.0077 365.269 94.701C365.944 94.379 366.488 93.942 366.902 93.39V95H370.145ZM353.135 86.766C354.039 86.9347 354.783 87.387 355.366 88.123C355.948 88.859 356.24 89.7023 356.24 90.653C356.24 91.5117 356.025 92.2707 355.596 92.93C355.182 93.574 354.576 94.08 353.779 94.448C352.981 94.816 352.038 95 350.95 95H344.027V78.946H350.651C351.739 78.946 352.675 79.1223 353.457 79.475C354.254 79.8277 354.852 80.3183 355.251 80.947C355.665 81.5757 355.872 82.2887 355.872 83.086C355.872 84.0213 355.619 84.8033 355.113 85.432C354.622 86.0607 353.963 86.5053 353.135 86.766ZM347.247 85.57H350.191C350.957 85.57 351.548 85.4013 351.962 85.064C352.376 84.7113 352.583 84.213 352.583 83.569C352.583 82.925 352.376 82.4267 351.962 82.074C351.548 81.7213 350.957 81.545 350.191 81.545H347.247V85.57ZM350.49 92.378C351.272 92.378 351.877 92.194 352.307 91.826C352.751 91.458 352.974 90.9367 352.974 90.262C352.974 89.572 352.744 89.0353 352.284 88.652C351.824 88.2533 351.203 88.054 350.421 88.054H347.247V92.378H350.49ZM247.622 85.156C247.116 86.1527 246.863 87.295 246.863 88.583C246.863 89.8864 247.116 91.044 247.622 92.056C248.143 93.0527 248.841 93.827 249.715 94.379C250.604 94.931 251.585 95.207 252.659 95.207C253.609 95.207 254.445 95.0154 255.166 94.632C255.902 94.2334 256.477 93.735 256.891 93.137V95H260.134V82.258H256.891V84.075C256.461 83.4924 255.886 83.0094 255.166 82.626C254.46 82.2427 253.632 82.051 252.682 82.051C251.593 82.051 250.604 82.3194 249.715 82.856C248.841 83.3927 248.143 84.1594 247.622 85.156ZM256.431 86.628C256.737 87.18 256.891 87.847 256.891 88.629C256.891 89.411 256.737 90.0857 256.431 90.653C256.124 91.205 255.71 91.6344 255.189 91.941C254.667 92.2324 254.108 92.378 253.51 92.378C252.927 92.378 252.375 92.2247 251.854 91.918C251.348 91.6114 250.934 91.1744 250.612 90.607C250.305 90.0244 250.152 89.3497 250.152 88.583C250.152 87.8164 250.305 87.157 250.612 86.605C250.934 86.0377 251.348 85.6084 251.854 85.317C252.36 85.0257 252.912 84.88 253.51 84.88C254.108 84.88 254.667 85.0334 255.189 85.34C255.71 85.6314 256.124 86.0607 256.431 86.628ZM241.269 91.619L238.578 98.082H236.508L238.003 91.619H241.269ZM228.816 101.026L236.705 82.258H233.278L229.943 91.159L226.654 82.258H223.043L228.149 94.678L225.389 101.026H228.816ZM222.023 77.98V95H218.803V77.98H222.023ZM217.051 89.595C217.112 89.227 217.143 88.813 217.143 88.353C217.143 87.111 216.875 86.0147 216.338 85.064C215.817 84.098 215.073 83.3544 214.107 82.833C213.156 82.3117 212.075 82.051 210.864 82.051C209.607 82.051 208.495 82.3194 207.529 82.856C206.563 83.3927 205.812 84.1594 205.275 85.156C204.738 86.1527 204.47 87.3104 204.47 88.629C204.47 89.9324 204.738 91.0824 205.275 92.079C205.827 93.0757 206.586 93.85 207.552 94.402C208.533 94.9387 209.637 95.207 210.864 95.207C212.382 95.207 213.662 94.816 214.705 94.034C215.748 93.2367 216.453 92.2247 216.821 90.998H213.348C212.842 92.0254 211.991 92.539 210.795 92.539C209.967 92.539 209.269 92.2784 208.702 91.757C208.135 91.2357 207.813 90.515 207.736 89.595H217.051ZM212.911 85.455C213.494 85.9457 213.793 86.605 213.808 87.433H207.759C207.882 86.5744 208.211 85.9074 208.748 85.432C209.3 84.9414 209.975 84.696 210.772 84.696C211.615 84.696 212.328 84.949 212.911 85.455ZM193.62 84.121C194.034 83.5077 194.601 83.0093 195.322 82.626C196.058 82.2427 196.894 82.051 197.829 82.051C198.918 82.051 199.899 82.3193 200.773 82.856C201.662 83.3927 202.36 84.1593 202.866 85.156C203.387 86.1373 203.648 87.2797 203.648 88.583C203.648 89.8863 203.387 91.044 202.866 92.056C202.36 93.0527 201.662 93.827 200.773 94.379C199.899 94.931 198.918 95.207 197.829 95.207C196.878 95.207 196.043 95.023 195.322 94.655C194.617 94.2717 194.049 93.781 193.62 93.183V95H190.4V77.98H193.62V84.121ZM200.359 88.583C200.359 87.8163 200.198 87.157 199.876 86.605C199.569 86.0377 199.155 85.6083 198.634 85.317C198.128 85.0257 197.576 84.88 196.978 84.88C196.395 84.88 195.843 85.0333 195.322 85.34C194.816 85.6313 194.402 86.0607 194.08 86.628C193.773 87.1953 193.62 87.8623 193.62 88.629C193.62 89.3957 193.773 90.0627 194.08 90.63C194.402 91.1973 194.816 91.6343 195.322 91.941C195.843 92.2323 196.395 92.378 196.978 92.378C197.576 92.378 198.128 92.2247 198.634 91.918C199.155 91.6113 199.569 91.1743 199.876 90.607C200.198 90.0397 200.359 89.365 200.359 88.583ZM178.769 94.402C179.75 94.9387 180.854 95.207 182.081 95.207C183.323 95.207 184.442 94.9387 185.439 94.402C186.451 93.85 187.248 93.0757 187.831 92.079C188.429 91.0824 188.728 89.9324 188.728 88.629C188.728 87.3257 188.437 86.1757 187.854 85.179C187.287 84.1824 186.505 83.4157 185.508 82.879C184.511 82.327 183.4 82.051 182.173 82.051C180.946 82.051 179.835 82.327 178.838 82.879C177.841 83.4157 177.052 84.1824 176.469 85.179C175.902 86.1757 175.618 87.3257 175.618 88.629C175.618 89.9324 175.894 91.0824 176.446 92.079C177.013 93.0757 177.788 93.85 178.769 94.402ZM183.714 91.987C183.208 92.263 182.664 92.401 182.081 92.401C181.161 92.401 180.394 92.079 179.781 91.435C179.183 90.7757 178.884 89.8404 178.884 88.629C178.884 87.4177 179.191 86.49 179.804 85.846C180.433 85.1867 181.207 84.857 182.127 84.857C183.047 84.857 183.821 85.1867 184.45 85.846C185.094 86.49 185.416 87.4177 185.416 88.629C185.416 89.4417 185.263 90.1317 184.956 90.699C184.649 91.2664 184.235 91.6957 183.714 91.987ZM171.034 84.236C171.448 83.5613 171.985 83.0323 172.644 82.649C173.319 82.2657 174.086 82.074 174.944 82.074V85.455H174.093C173.081 85.455 172.315 85.6927 171.793 86.168C171.287 86.6433 171.034 87.4713 171.034 88.652V95H167.814V82.258H171.034V84.236ZM165.597 86.329C166.011 85.5777 166.218 84.7727 166.218 83.914C166.218 82.9633 165.996 82.1123 165.551 81.361C165.122 80.6097 164.47 80.0193 163.596 79.59C162.722 79.1607 161.664 78.946 160.422 78.946H154.511V95H157.731V88.836H160.422C161.741 88.836 162.829 88.606 163.688 88.146C164.562 87.686 165.198 87.0803 165.597 86.329ZM162.262 85.639C161.833 86.0377 161.173 86.237 160.284 86.237H157.731V81.568H160.284C162.032 81.568 162.906 82.35 162.906 83.914C162.906 84.65 162.691 85.225 162.262 85.639ZM148.675 82.258L140.786 101.026H137.359L140.119 94.678L135.013 82.258H138.624L141.913 91.159L145.248 82.258H148.675ZM126.509 82.626C125.788 83.0093 125.221 83.5077 124.807 84.121V77.98H121.587V95H124.807V93.183C125.236 93.781 125.804 94.2717 126.509 94.655C127.23 95.023 128.065 95.207 129.016 95.207C130.105 95.207 131.086 94.931 131.96 94.379C132.849 93.827 133.547 93.0527 134.053 92.056C134.574 91.044 134.835 89.8863 134.835 88.583C134.835 87.2797 134.574 86.1373 134.053 85.156C133.547 84.1593 132.849 83.3927 131.96 82.856C131.086 82.3193 130.105 82.051 129.016 82.051C128.081 82.051 127.245 82.2427 126.509 82.626ZM131.063 86.605C131.385 87.157 131.546 87.8163 131.546 88.583C131.546 89.365 131.385 90.0397 131.063 90.607C130.756 91.1743 130.342 91.6113 129.821 91.918C129.315 92.2247 128.763 92.378 128.165 92.378C127.582 92.378 127.03 92.2323 126.509 91.941C126.003 91.6343 125.589 91.1973 125.267 90.63C124.96 90.0627 124.807 89.3957 124.807 88.629C124.807 87.8623 124.96 87.1953 125.267 86.628C125.589 86.0607 126.003 85.6313 126.509 85.34C127.03 85.0333 127.582 84.88 128.165 84.88C128.763 84.88 129.315 85.0257 129.821 85.317C130.342 85.6083 130.756 86.0377 131.063 86.605Z" fill="white"/>
</svg>
